<svg xmlns="http://www.w3.org/2000/svg" viewBox="0 0 574 578"><defs><filter id="a" width="139.5%" height="145.7%" x="-19.8%" y="-16.3%" filterUnits="objectBoundingBox"><feOffset dy="30" in="SourceAlpha" result="shadowOffsetOuter1"/><feGaussianBlur in="shadowOffsetOuter1" result="shadowBlurOuter1" stdDeviation="30"/><feColorMatrix in="shadowBlurOuter1" result="shadowMatrixOuter1" values="0 0 0 0 0.305882353 0 0 0 0 0.450980392 0 0 0 0 0.874509804 0 0 0 0.4 0"/><feMerge><feMergeNode in="shadowMatrixOuter1"/><feMergeNode in="SourceGraphic"/></feMerge></filter></defs><g fill="none" fill-rule="nonzero" stroke="none" stroke-width="1" filter="url(#a)" transform="translate(-866 -1392) translate(925 1421)"><path fill="#DDEAFB" d="M531 41.285V371H158.288l-61.079-5.918-60.717 5.917H15.174C6.794 371 0 364.207 0 355.827V41.285L268.576 27 531 41.285z"/><path fill="#CBE2FF" d="M506 32 506 371 531 371 531 41.8124843z"/><path fill="#0473CE" d="M479.828 0 489 21l-9.172 21H0V15.361C0 6.877 6.788 0 15.16 0h464.668z"/><path fill="#FE646F" d="M531 15.361V42h-51V0h35.752C524.172 0 531 6.877 531 15.361z"/><path fill="#FD4755" d="M515.657 0H490c8.474 0 15.343 6.878 15.343 15.363V42H531V15.361C531 6.877 524.13 0 515.657 0z"/><path fill="#528FD8" d="M158 82.566v121.731L96.823 212 36 204.297V82.566C36 78.942 38.964 76 42.603 76h108.805c3.638 0 6.592 2.942 6.592 6.566z"/><path fill="#FFF9DF" d="M158 204v49.102c0 4.36-3.5 7.898-7.823 7.898H43.834C39.51 261 36 257.461 36 253.102V204h122z"/><path fill="#A274BF" d="M158 370H36v-70.451c0-3.617 2.954-6.549 6.598-6.549H151.4c3.644 0 6.598 2.932 6.598 6.549L158 370zM328 82.566v52.302L267 144l-61-9.132V82.566c0-3.624 2.954-6.566 6.593-6.566h108.814c3.64 0 6.593 2.942 6.593 6.566z"/><path fill="#82AEE3" d="M328 231.572v52.268L269.509 290 206 283.84v-52.268c0-3.632 2.954-6.572 6.593-6.572h108.814c3.64 0 6.593 2.94 6.593 6.572z"/><path fill="#FE646F" d="M496 82.566v52.302L434.932 144 374 134.868V82.566c0-3.624 2.954-6.566 6.603-6.566h108.794c3.65 0 6.603 2.942 6.603 6.566z"/><g fill="#FFF9DF"><path d="M121.576.854v48.56c0 4.31-3.486 7.81-7.794 7.81H7.836c-4.307 0-7.793-3.5-7.793-7.81V.853h121.533zM289.925.854v48.56c0 4.31-3.497 7.81-7.804 7.81H176.175c-4.307 0-7.794-3.5-7.794-7.81V.853h121.544zM121.576 149.734v48.56c0 4.31-3.486 7.799-7.794 7.799H7.836a7.793 7.793 0 0 1-7.793-7.8v-48.56h121.533z" transform="translate(206 135)"/></g><path fill="#FFD15B" d="M261.036 321h-21.072c-4.398 0-7.964-3.582-7.964-8s3.566-8 7.964-8h21.072c4.398 0 7.964 3.582 7.964 8s-3.566 8-7.964 8z"/><path fill="#FFD15B" d="M531 273.03v162.94c0 13.277-10.813 24.03-24.164 24.03H284.164C270.814 460 260 449.247 260 435.97V308.26c0-13.265 10.813-24.03 24.164-24.03h104.537c10.15 0 19.208-6.292 22.698-15.767l1.349-3.684c3.49-9.476 12.548-15.779 22.698-15.779h71.39c13.35 0 24.164 10.753 24.164 24.03z"/><path fill="#FFF9DF" d="M392.823 427h-92.646c-2.859 0-5.177-2.295-5.177-5.127v-22.746c0-2.832 2.318-5.127 5.177-5.127h92.646c2.859 0 5.177 2.295 5.177 5.127v22.746c0 2.832-2.318 5.127-5.177 5.127z"/><path fill="#FFF0AD" d="M393.723 394H367c2.915 0 5.277 2.295 5.277 5.127v22.746c0 2.832-2.362 5.127-5.277 5.127h26.723c2.914 0 5.277-2.295 5.277-5.127v-22.746c0-2.832-2.363-5.127-5.277-5.127z"/><path fill="#FFC344" d="M507.11 249H479c8.767 0 15.873 7.148 15.873 15.966v179.068c0 8.818-7.106 15.966-15.873 15.966h28.11c13.2 0 23.89-10.753 23.89-24.03V273.03c0-13.277-10.69-24.03-23.89-24.03z"/><path fill="#FFD15B" d="M124.932 242H70.068c-4.455 0-8.068-3.582-8.068-8s3.613-8 8.068-8h54.864c4.455 0 8.068 3.582 8.068 8s-3.613 8-8.068 8zM294.932 171h-54.864c-4.455 0-8.068-3.582-8.068-8s3.613-8 8.068-8h54.864c4.455 0 8.068 3.582 8.068 8s-3.613 8-8.068 8zM462.93 171h-54.862c-4.455 0-8.068-3.582-8.068-8s3.613-8 8.068-8h54.864c4.455 0 8.068 3.582 8.068 8s-3.614 8-8.07 8z"/><path fill="#528FD8" d="M493.968 289h-51.936c-4.436 0-8.032-3.582-8.032-8s3.596-8 8.032-8h51.936c4.436 0 8.032 3.582 8.032 8s-3.596 8-8.032 8z"/></g></svg>