<svg xmlns="http://www.w3.org/2000/svg" viewBox="0 0 660 545"><defs><filter id="a" width="149.5%" height="161.1%" x="-24.8%" y="-20.8%" filterUnits="objectBoundingBox"><feOffset dy="40" in="SourceAlpha" result="shadowOffsetOuter1"/><feGaussianBlur in="shadowOffsetOuter1" result="shadowBlurOuter1" stdDeviation="35"/><feColorMatrix in="shadowBlurOuter1" result="shadowMatrixOuter1" values="0 0 0 0 0.184313725 0 0 0 0 0.274509804 0 0 0 0 0.541176471 0 0 0 0.4 0"/><feMerge><feMergeNode in="shadowMatrixOuter1"/><feMergeNode in="SourceGraphic"/></feMerge></filter><filter id="b" width="220%" height="247.9%" x="-60%" y="-95.1%" filterUnits="objectBoundingBox"><feOffset dy="-30" in="SourceAlpha" result="shadowOffsetOuter1"/><feGaussianBlur in="shadowOffsetOuter1" result="shadowBlurOuter1" stdDeviation="30"/><feColorMatrix in="shadowBlurOuter1" result="shadowMatrixOuter1" values="0 0 0 0 0.196078431 0 0 0 0 0.294117647 0 0 0 0 0.57254902 0 0 0 0.3 0"/><feMerge><feMergeNode in="shadowMatrixOuter1"/><feMergeNode in="SourceGraphic"/></feMerge></filter></defs><g fill="none" fill-rule="nonzero" stroke="none" stroke-width="1"><g filter="url(#a)" transform="translate(-699 -141) translate(762 169)"><path fill="#5A5A5A" d="M145.77 5.325v22.633l-22.21 5.207-23.01-5.207V5.325a4.957 4.957 0 0 1 4.957-4.957h35.307a4.956 4.956 0 0 1 4.956 4.957z"/><path fill="#444" d="M145.77 5.328v22.63l-11.105 5.207-6.145-5.207V5.328a4.96 4.96 0 0 0-4.96-4.96h17.25a4.96 4.96 0 0 1 4.96 4.96z"/><path fill="#5A5A5A" d="M453.77 5.325v22.633l-23.12 4.207-22.1-4.207V5.325a4.957 4.957 0 0 1 4.957-4.957h35.307a4.956 4.956 0 0 1 4.956 4.957z"/><path fill="#444" d="M453.77 5.328v22.63l-11.205 2.039-6.245-2.039V5.328a4.96 4.96 0 0 0-4.96-4.96h17.45a4.96 4.96 0 0 1 4.96 4.96z"/><path fill="#DDEAFB" d="M504.5 49.963v248.04c0 12.153-9.852 22.005-22.005 22.005H459.01l-40.295-6.51-40.295 6.51H75.53c-14.2 0-25.71-11.52-25.71-25.71V53.668c0-14.19 11.51-25.71 25.71-25.71h406.965c12.153 0 22.005 9.852 22.005 22.005z"/><path fill="#CBE2FF" d="M504.5 49.958v248.05c0 12.15-9.85 22-22.01 22h-21.28c12.15 0 22.01-9.85 22.01-22V49.958c0-12.15-9.86-22-22.01-22h21.28c12.16 0 22.01 9.85 22.01 22z"/><path fill="#528FD8" d="M459.01 292.146v27.862h-80.59v-27.862a8.028 8.028 0 0 1 8.028-8.028h64.533a8.028 8.028 0 0 1 8.029 8.028z"/><path fill="#0473CE" d="M459.01 292.148v27.86h-20.33v-27.86c0-4.44-3.6-8.03-8.03-8.03h20.33c4.44 0 8.03 3.59 8.03 8.03z"/><path fill="#FFCEBF" d="m358.76 217.138-21.952-7.511-10.918-25.359 14.311-14.319 12.5-8.919c1.725-3.962 6.059 56.108 6.059 56.108z"/><path fill="#FFB09E" d="m363.01 161.148-4.25 55.99-13.736-4.7-1.894-10.93 2.143-28.255c.206-2.717-2.669-4.59-5.071-3.304l13.209-13.211c3.689-3.69 9.989-.8 9.599 4.41z"/><path fill="#82AEE3" d="m358.75 217.128-48.2 58.72a65.6 65.6 0 0 1-33.43 21.66l-77.122 21.09a7.006 7.006 0 0 0-5.158 6.758v75.273H37.31v-47.32c0-13.27 1.51-26.45 4.49-39.29 2.97-12.84 7.4-25.35 13.24-37.27a44.016 44.016 0 0 1 39.52-24.65h126.38c31.87 0 62.02-14.44 81.98-39.27l22.97-28.56 17.24 17.24 15.62 15.619z"/><path fill="#528FD8" d="m358.75 217.128-48.2 58.72a65.6 65.6 0 0 1-33.43 21.66l-77.122 21.09a7.006 7.006 0 0 0-5.158 6.758v75.273h-25.3v-75.273a7.006 7.006 0 0 1 5.158-6.758l77.122-21.09a65.6 65.6 0 0 0 33.43-21.66l57.88-74.34 15.62 15.62z"/><path fill="#FFCEBF" d="M172.727 172.774v38.119c0 22.763-18.458 41.21-41.221 41.21-.861 0-1.722-.022-2.572-.088-21.571-1.325-38.638-19.22-38.638-41.122v-38.119h82.431z"/><path fill="#528FD8" d="M292.949 99.914h-31.581a4.632 4.632 0 0 1-4.632-4.632V76.948a4.632 4.632 0 0 1 4.632-4.632h31.581a4.632 4.632 0 0 1 4.632 4.632v18.334a4.631 4.631 0 0 1-4.632 4.632zM292.949 155.889h-31.581a4.632 4.632 0 0 1-4.632-4.632v-18.334a4.632 4.632 0 0 1 4.632-4.632h31.581a4.632 4.632 0 0 1 4.632 4.632v18.334a4.631 4.631 0 0 1-4.632 4.632z"/><path fill="#FFCEBF" d="M172.73 172.778v38.11c0 22.77-18.46 41.21-41.22 41.21-.87 0-1.73-.02-2.58-.08-2.9-.18-5.72-.65-8.42-1.41-17.43-4.8-30.21-20.75-30.21-39.72v-38.11h82.43z"/><path fill="#FFB09E" d="M172.73 172.778v38.11c0 22.77-18.46 41.21-41.22 41.21-.87 0-1.73-.02-2.58-.08-2.9-.18-5.72-.65-8.42-1.41 17.42-4.81 30.22-20.76 30.22-39.72v-38.11h22z"/><path fill="#5A5A5A" d="M207.31 146.398c0 16.32-13.22 29.54-29.54 29.54h-53.28v40.88c0 18.78-20.15 24.83-32.13 17.22-4.83-3.07-8.33-8.35-8.65-15.9-.03-.63-.04-1.28-.04-1.92v-56.21c0-13.11 10.61-23.73 23.72-23.73H128c14.678 0 20.162-11.595 32.21-16.9 5.467-2.38 11.654-2.801 17.56-2.53 16.32 0 29.54 13.23 29.54 29.55z"/><g fill="#444"><path d="M.38 29.808c.45-.61.93-1.2 1.45-1.76-.51.56-.99 1.15-1.45 1.76zM29.36 59.938h7.13v40.88c0 18.78-20.15 24.83-32.13 17.22 5.31-3.28 9.13-9.04 9.13-17.22v-25.01c0-8.77 7.1-15.87 15.87-15.87zM119.31 30.398c0 16.32-13.22 29.54-29.54 29.54H66.1c16.24 0 30.2-13.28 30.21-29.52.01-13.28-8.74-24.52-20.79-28.25C79.706.877 85.2.653 89.77.848c16.32 0 29.54 13.23 29.54 29.55z" transform="translate(88 116)"/></g><path fill="#0067C5" d="M222.768 393.132H7.5a7.5 7.5 0 0 0 0 15h215.268a7.5 7.5 0 0 0 0-15z"/><path fill="#FFF9DF" d="M459.011 93.614H325.886a7.5 7.5 0 0 1 0-15h133.125a7.5 7.5 0 0 1 0 15zM358.751 149.59h-32.865a7.5 7.5 0 0 1 0-15h32.865a7.5 7.5 0 0 1 0 15z"/></g><g filter="url(#b)" transform="translate(-699 -141) translate(762 169) translate(363 267)"><path fill="#5A5A5A" d="M44 9.503 34 11 24 9.503V2.46C24 1.1 25.164 0 26.599 0H41.4C42.836 0 44 1.101 44 2.46v7.043z"/><path fill="#444" d="M44 2.458v7.045L41.305 11l-1.91-1.497V2.458C39.395 1.1 38.324 0 37 0h4.605C42.93 0 44 1.1 44 2.458z"/><path fill="#5A5A5A" d="M149 9.503 139 11l-10-1.497V2.46C129 1.1 130.164 0 131.599 0H146.4C147.837 0 149 1.101 149 2.46v7.043z"/><path fill="#444" d="M150 2.458v7.045L147.272 11l-2.741-1.497V2.458C144.53 1.1 143.399 0 142 0h5.47c1.395 0 2.53 1.1 2.53 2.458z"/><path fill="#DDEAFB" d="M175 18.273v89.457c0 4.017-3.077 7.27-6.87 7.27H6.87C3.077 115 0 111.747 0 107.73V18.273C0 14.256 3.077 11 6.87 11h161.26c3.793 0 6.87 3.256 6.87 7.273z"/><path fill="#CBE2FF" d="M175 18.273v89.457c0 4.017-2.976 7.27-6.64 7.27H159c3.667 0 6.64-3.253 6.64-7.27V18.273c0-4.017-2.973-7.273-6.64-7.273h9.36c3.664 0 6.64 3.256 6.64 7.273z"/><path fill="#528FD8" d="M54 47c0 5.467-2.237 10.418-5.86 14L34 47h20z"/><path fill="#82AEE3" d="M54 47H34V27c11.044 0 20 8.956 20 20z"/><path fill="#0473CE" d="M48 60.287C44.396 63.815 39.417 66 33.918 66 22.915 66 14 57.268 14 46.5S22.915 27 33.918 27v19.5L48 60.287z"/><path fill="#FFF9DF" d="M57 79.637v16.726C57 97.823 55.804 99 54.33 99H13.67C12.196 99 11 97.822 11 96.363V79.637C11 78.18 12.196 77 13.67 77h40.66c1.474 0 2.67 1.181 2.67 2.637z"/><path fill="#FFF0AD" d="M57 79.637v16.726C57 97.823 55.79 99 54.3 99H42c1.49 0 2.7-1.178 2.7-2.637V79.637C44.7 78.18 43.49 77 42 77h12.3c1.49 0 2.7 1.181 2.7 2.637z"/><path fill="#528FD8" d="M139 26.534v8.932c0 1.399-1.171 2.534-2.623 2.534H68.623C67.175 38 66 36.865 66 35.466v-8.932C66 25.135 67.175 24 68.623 24h67.754c1.452 0 2.623 1.135 2.623 2.534z"/><path fill="#0473CE" d="M139 26.534v8.932c0 1.399-1.158 2.534-2.593 2.534H125c1.435 0 2.593-1.135 2.593-2.534v-8.932c0-1.399-1.158-2.534-2.593-2.534h11.407c1.435 0 2.593 1.135 2.593 2.534z"/><path fill="#528FD8" d="M175 81.949v47.102c0 7.15-5.72 12.949-12.771 12.949H115.77C108.72 142 103 136.201 103 129.051V81.95C103 74.799 108.72 69 115.771 69h46.458C169.28 69 175 74.799 175 81.949z"/><path fill="#0473CE" d="M175 81.949v47.102c0 7.15-5.868 12.949-13.105 12.949H152c7.236 0 13.105-5.799 13.105-12.949V81.95C165.105 74.799 159.236 69 152 69h9.895C169.132 69 175 74.799 175 81.949z"/><path fill="#FFD15B" d="M122.274 127h-6.548c-.953 0-1.726-.742-1.726-1.658v-20.684c0-.916.773-1.658 1.726-1.658h6.548c.953 0 1.726.742 1.726 1.658v20.684c0 .916-.773 1.658-1.726 1.658z"/><path fill="#FFF0AD" d="M142.274 126h-6.548c-.953 0-1.726-.72-1.726-1.61V97.61c0-.89.773-1.61 1.726-1.61h6.548c.953 0 1.726.72 1.726 1.61v26.78c0 .89-.773 1.61-1.726 1.61z"/><path fill="#FFF9DF" d="M162.274 126h-6.548c-.953 0-1.726-.717-1.726-1.602V88.602c0-.885.773-1.602 1.726-1.602h6.548c.953 0 1.726.717 1.726 1.602v35.796c0 .885-.773 1.602-1.726 1.602z"/><path fill="#FFF0AD" d="M94 79.637v16.726C94 97.823 92.801 99 91.317 99H68.683C67.203 99 66 97.822 66 96.363V79.637C66 78.18 67.202 77 68.683 77h22.634C92.8 77 94 78.181 94 79.637z"/><path fill="#FFD15B" d="M94 79.637v16.726C94 97.823 92.76 99 91.224 99H80c1.536 0 2.776-1.178 2.776-2.637V79.637C82.776 78.18 81.536 77 80 77h11.224C92.76 77 94 78.181 94 79.637z"/><path fill="#FFF9DF" d="M153.354 52H68.645C67.184 52 66 50.657 66 49s1.184-3 2.645-3h84.71c1.461 0 2.645 1.343 2.645 3s-1.184 3-2.646 3zM154.317 62h-53.634C99.2 62 98 60.657 98 59s1.2-3 2.683-3h53.634C155.8 56 157 57.343 157 59s-1.2 3-2.683 3zM87.34 62H68.66C67.19 62 66 60.657 66 59s1.19-3 2.66-3h18.68c1.47 0 2.66 1.343 2.66 3s-1.19 3-2.66 3z"/></g></g></svg>