<svg xmlns="http://www.w3.org/2000/svg" viewBox="0 0 158 141"><g fill="none" fill-rule="nonzero" stroke="none" stroke-width="1" opacity=".8" transform="translate(-479 -909) translate(443 864) translate(36.063 45.68)"><path fill="#DDEAFB" d="M156.272 12.365v95.571a1.85 1.85 0 0 1-1.847 1.855H1.846A1.85 1.85 0 0 1 0 107.936v-95.57l81.865-3.55 74.407 3.55z"/><path fill="#CBE2FF" d="M157.073 12.286v95.647c0 1.027-.845 1.858-1.89 1.858h-7.727c1.045 0 1.891-.83 1.891-1.858V10.418l7.726 1.868z"/><path fill="#0473CE" d="m141.56 0 1.89 6.411-1.89 6.411H0V1.94C0 .868.828 0 1.85 0h139.71z"/><path fill="#FE646F" d="M156.272 1.94v10.882h-14.425V0h12.64c.986 0 1.785.869 1.785 1.94z"/><path fill="#FD4755" d="M157.073 1.938v10.884h-7.726V1.938c0-1.07-.846-1.938-1.89-1.938h7.726c1.045 0 1.89.868 1.89 1.938z"/><path fill="#FFF9DF" d="M48.885 21.61v36.118a2.377 2.377 0 0 1-2.376 2.377H10.39a2.377 2.377 0 0 1-2.376-2.377V21.61a2.377 2.377 0 0 1 2.376-2.377H46.51a2.377 2.377 0 0 1 2.376 2.377z"/><path fill="#FFF9DF" d="M48.885 21.61v36.118c0 1.312-1.047 2.377-2.337 2.377h-8.882c1.29 0 2.337-1.065 2.337-2.377V21.61c0-1.312-1.047-2.377-2.337-2.377h8.882c1.29 0 2.337 1.065 2.337 2.377z"/><path fill="#0473CE" d="M25.903 38.467h-5.325a1.344 1.344 0 0 1-1.345-1.344v-5.326c0-.742.602-1.344 1.345-1.344h5.325c.742 0 1.344.602 1.344 1.344v5.326c0 .742-.602 1.344-1.344 1.344z"/><path fill="#FFF9DF" d="M105.023 19.233H58.462a2.362 2.362 0 0 0-2.364 2.36V84.19a2.362 2.362 0 0 0 2.364 2.36h46.56a2.362 2.362 0 0 0 2.365-2.36V21.593a2.362 2.362 0 0 0-2.364-2.36z"/><path fill="#0473CE" d="M73.987 38.467H68.66a1.344 1.344 0 0 1-1.344-1.344v-5.326c0-.742.602-1.344 1.344-1.344h5.326c.742 0 1.344.602 1.344 1.344v5.326c0 .742-.602 1.344-1.344 1.344z"/><path fill="#82AEE3" d="m86.55 113.091-25.8 25.8a1.884 1.884 0 0 1-2.666 0l-6.243-6.246a1.884 1.884 0 0 1 0-2.664l25.799-25.8 4.18 4.18 4.73 4.73z"/><path fill="#528FD8" d="m86.55 112.945-25.957 25.942c-.74.74-1.941.74-2.682 0l-4.218-4.217a1.9 1.9 0 0 0 2.026-.428l26.071-26.054 4.76 4.757z"/><path fill="#528FD8" d="M82.543554 108.185147 82.543554 108.188153 78.5365854 104.181185z"/><path fill="#5A5A5A" d="M100.174216 104.051081 97.2442515 106.977895 87.4871545 112.195122 78.5365854 103.244553 83.7538126 93.4874558 86.6837771 90.5574913 95.4201123 99.2938264z"/><path fill="#444" d="M99.3728223 104.100947 96.5456511 107.00984 87.1308672 112.195122 82.543554 107.470128 91.9583379 102.284846 94.7855091 99.3728223z"/><path fill="#5A5A5A" d="M144.535 102.748c-8.793 8.878-20.652 12.77-32.13 11.67-8.956-.856-17.68-4.745-24.536-11.67-15.649-15.806-15.649-41.43 0-57.236 6.857-6.925 15.58-10.817 24.536-11.673 11.478-1.097 23.337 2.795 32.13 11.673 15.65 15.806 15.65 41.43 0 57.236z"/><path fill="#444" d="M145.28 102.748c-8.835 8.878-20.75 12.77-32.283 11.67 8.996-.856 17.76-4.745 24.653-11.67 15.721-15.806 15.721-41.43 0-57.236-6.892-6.925-15.657-10.817-24.653-11.673 11.532-1.097 23.448 2.795 32.283 11.673 15.724 15.806 15.724 41.43 0 57.236z"/><path fill="#82AEE3" d="M148.258 73.727c0 17.263-13.993 31.256-31.255 31.256-1.228 0-2.443-.073-3.633-.211-15.549-1.798-27.62-15.013-27.62-31.045 0-16.033 12.071-29.244 27.62-31.042a31.457 31.457 0 0 1 3.633-.211c17.262 0 31.255 13.992 31.255 31.253z"/><path fill="#528FD8" d="M148.258 73.727c0 17.263-14.143 31.256-31.589 31.256a32.13 32.13 0 0 1-3.672-.211c15.718-1.798 27.919-15.01 27.919-31.045 0-16.033-12.201-29.244-27.92-31.042a32.13 32.13 0 0 1 3.673-.211c17.446 0 31.589 13.992 31.589 31.253z"/><path fill="#FFF9DF" d="M97.492 84.146c-.947 0-2.317-.736-3.495-1.534-1.216-.825-1.394-2.564-.356-3.609a2.286 2.286 0 0 1 3.165-.084l.043.04c.06.055.524.42.718.31a.502.502 0 0 0 .231-.44V67.435c0-1.326 1.009-2.481 2.317-2.521 1.353-.041 2.463 1.057 2.463 2.42v11.495c0 1.948-1.03 3.738-2.69 4.672a4.832 4.832 0 0 1-2.396.645z"/><g fill="#FFF9DF"><path d="M33.05 8.426a5.695 5.695 0 0 0 .644-2.63c0-3.139-2.53-5.692-5.64-5.692H23.94a2.393 2.393 0 0 0-2.383 2.404v14.289c0 .64.253 1.252.702 1.703.446.449 1.051.7 1.68.7h.011s3.78-.016 4.821-.016c3.416 0 6.194-2.804 6.194-6.25 0-1.772-.737-3.37-1.914-4.508zm-4.997-3.514a.88.88 0 0 1 .876.884.88.88 0 0 1-.876.883l-1.46.004h-.27v-1.77h1.73v-.001zm.718 9.463c-.464 0-1.472.004-2.449.007v-2.89h2.449c.788 0 1.43.646 1.43 1.441s-.642 1.442-1.43 1.442zM9.52.104C4.302.104.057 4.387.057 9.652S4.302 19.2 9.52 19.2c5.217 0 9.462-4.283 9.462-9.548S14.737.104 9.52.104zm0 14.288c-2.59 0-4.698-2.126-4.698-4.74 0-2.613 2.107-4.74 4.698-4.74 2.59 0 4.697 2.127 4.697 4.74 0 2.614-2.107 4.74-4.697 4.74z" transform="translate(105.784 64.913)"/></g><path fill="#FFF0AD" d="M46.509 69.721H10.39c-1.312 0-2.376-1.076-2.376-2.404 0-1.328 1.064-2.404 2.376-2.404H46.51c1.312 0 2.376 1.076 2.376 2.404 0 1.328-1.064 2.404-2.376 2.404zM46.509 78.537H10.39c-1.312 0-2.376-1.077-2.376-2.405 0-1.328 1.064-2.404 2.376-2.404H46.51c1.312 0 2.376 1.076 2.376 2.404 0 1.328-1.064 2.405-2.376 2.405z"/><path fill="#FFF9DF" d="M46.509 87.352H10.39c-1.312 0-2.376-1.076-2.376-2.404 0-1.328 1.064-2.404 2.376-2.404H46.51c1.312 0 2.376 1.076 2.376 2.404 0 1.328-1.064 2.404-2.376 2.404zM28.116 96.167H10.35c-1.29 0-2.337-1.076-2.337-2.404 0-1.328 1.046-2.404 2.337-2.404h17.765c1.29 0 2.337 1.076 2.337 2.404 0 1.328-1.047 2.404-2.337 2.404z"/></g></svg>