<svg xmlns="http://www.w3.org/2000/svg" xmlns:xlink="http://www.w3.org/1999/xlink" viewBox="0 0 129 129"><defs><rect id="b" width="79" height="79" x="0" y="0" rx="16"/><filter id="a" width="207.6%" height="207.6%" x="-53.8%" y="-41.1%" filterUnits="objectBoundingBox"><feOffset dy="10" in="SourceAlpha" result="shadowOffsetOuter1"/><feGaussianBlur in="shadowOffsetOuter1" result="shadowBlurOuter1" stdDeviation="12.5"/><feColorMatrix in="shadowBlurOuter1" values="0 0 0 0 0.305882353 0 0 0 0 0.450980392 0 0 0 0 0.874509804 0 0 0 0.5 0"/></filter></defs><g fill="none" fill-rule="evenodd" stroke="none" stroke-width="1"><g transform="translate(-166 -1636) translate(191 1651)"><use fill="#000" filter="url(#a)" xlink:href="#b"/><use fill="#4E73DF" xlink:href="#b"/></g><g fill-rule="nonzero" transform="translate(-166 -1636) translate(191 1651) translate(18 17)"><path fill="#5A5A5A" d="M19.2941176 4.82142857 25.7254902 4.82142857 25.7254902 9.64285714 19.2941176 9.64285714z"/><path fill="#444" d="M24.1176471 4.82142857 26.5294118 4.82142857 26.5294118 9.64285714 24.1176471 9.64285714z"/><path fill="#DDEAFB" d="M28.941 2.41c0 .666-.287 1.269-.752 1.706a2.65 2.65 0 0 1-1.817.705h-6.92c-1.42 0-2.57-1.079-2.57-2.41 0-.667.288-1.268.753-1.705A2.65 2.65 0 0 1 19.452 0h6.92c1.419 0 2.57 1.08 2.57 2.41z"/><path fill="#CBE2FF" d="M28.941 2.41a2.33 2.33 0 0 1-.755 1.706 2.668 2.668 0 0 1-1.825.705h-2.243c.713 0 1.357-.27 1.824-.705a2.33 2.33 0 0 0 .756-1.706c0-1.33-1.156-2.41-2.58-2.41h2.243c1.425 0 2.58 1.08 2.58 2.41z"/><ellipse cx="23.314" cy="27.321" fill="#FFF9DF" rx="16.078" ry="16.071"/><path fill="#FFF0AD" d="M39.392 27.321c0 8.876-7.21 16.072-16.102 16.072-.535 0-1.063-.027-1.584-.077 8.15-.794 14.52-7.652 14.52-15.995 0-8.342-6.37-15.2-14.52-15.994.52-.05 1.05-.077 1.584-.077 8.892 0 16.102 7.196 16.102 16.071z"/><path fill="#FFD15B" d="M10.426 35.357a.785.785 0 0 1-.675-.373.73.73 0 0 1 .285-1.02l1.66-.917a.797.797 0 0 1 1.062.273.73.73 0 0 1-.285 1.019l-1.658.918a.8.8 0 0 1-.389.1zM24.118 11.264v2.577c0 .344-.36.623-.804.623-.444 0-.804-.279-.804-.623v-2.577a23.564 23.564 0 0 1 1.608 0zM16.576 15.987a.596.596 0 0 1-.306.084.61.61 0 0 1-.532-.316l-1.267-2.264c.343-.227.697-.44 1.06-.634l1.269 2.266c.17.303.07.69-.224.864zM16.8 37.913l-1.268 2.266a13.148 13.148 0 0 1-1.061-.634l1.267-2.264a.604.604 0 0 1 .838-.232.643.643 0 0 1 .224.864zM24.118 39.195v2.577a23.564 23.564 0 0 1-1.608 0v-2.577c0-.344.36-.624.804-.624.445 0 .804.28.804.624z"/><g fill="#FFD15B"><path d="M5.906 6.632a15.65 15.65 0 0 1-.559 1.252l-.514-.303a.69.69 0 0 1-.246-.934.665.665 0 0 1 .918-.25l.4.235zM1.942 12.426c-.337.312-.687.608-1.05.888l-.798-1.409a.692.692 0 0 1 .246-.935.667.667 0 0 1 .919.25l.683 1.206zM7.021.741c0 .23-.004.458-.014.686h-.194A.679.679 0 0 1 6.14.742c0-.379.3-.685.672-.685h.194c.01.227.014.455.014.684z" transform="translate(28.941 12.857) translate(0 12.946)"/></g><path fill="#FFD15B" d="m5.906 7.797-.401.236a.668.668 0 0 1-.918-.25.69.69 0 0 1 .246-.935l.514-.302c.204.407.39.825.559 1.251z" transform="translate(28.941 12.857)"/><g fill="#FFC344"><path d="m5.029 19.579 2.008 1.18c-.207.403-.474.78-.673 1.185L4.47 20.83c.204-.407.39-.825.559-1.251zM5.029 7.797a15.65 15.65 0 0 0-.559-1.251l1.894-1.114c.149.304.355.585.514.883l.16.302-2.01 1.18zM1.065 25.372l.707 1.247a12.83 12.83 0 0 1-1.164.685L.016 26.26c.362-.28.712-.577 1.049-.889zM1.487.577l.285.18-.707 1.247a15.642 15.642 0 0 0-1.05-.889L.609.072c.298.16.593.326.88.505zM8.715 14.373H6.13a16.198 16.198 0 0 0 0-1.37h2.585c.004.115.009.228.011.343.005.342.002.684-.011 1.027z" transform="translate(28.941 12.857) translate(.877)"/></g><path fill="#FFD15B" d="m1.942 2.004-.683 1.205a.67.67 0 0 1-.919.25.692.692 0 0 1-.246-.935l.799-1.409c.362.28.712.577 1.049.889z" transform="translate(28.941 12.857)"/><path fill="#DDEAFB" d="M22.912 8.84c-9.99 0-18.088 8.094-18.088 18.08 0 9.985 8.098 18.08 18.088 18.08S41 36.905 41 26.92c0-9.986-8.099-18.08-18.088-18.08zm0 33.299c-8.41 0-15.226-6.814-15.226-15.22 0-8.405 6.817-15.219 15.226-15.219s15.226 6.814 15.226 15.22c0 8.405-6.817 15.219-15.226 15.219z"/><path fill="#CBE2FF" d="M23.363 8.84c-.286 0-.57.007-.853.02 9.343.456 16.783 8.368 16.783 18.06 0 9.691-7.44 17.603-16.783 18.06.282.013.567.02.853.02C33.103 45 41 36.905 41 26.92c0-9.986-7.897-18.08-17.637-18.08z"/><path fill="#5A5A5A" d="M10.4509804 42.1182873 6.43137255 42.5892857 2.41176471 42.1182873 2.41176471 27.8810394 6.43093059 27.3214286 10.4509804 27.8810394z"/><path fill="#444" d="M11.254902 27.7866534 11.254902 42.1981763 10.4509804 42.5892857 9.64705882 42.1981763 9.64705882 27.7866534 10.4509804 27.3214286z"/><path fill="#444" d="M7.23529412 27.7866534 7.23529412 42.1981763 6.43137255 42.5892857 5.62745098 42.1981763 5.62745098 27.7866534 6.43137255 27.3214286z"/><path fill="#DDEAFB" d="M6.431 42.59V45h4.423c.666 0 1.205-.438 1.205-.98 0-.278-.147-.544-.403-.73l-1.053-.7H6.43z"/><path fill="#CBE2FF" d="M12.863 44.02c0 .541-.589.98-1.315.98H9.92c.727 0 1.315-.438 1.315-.98a.774.774 0 0 0-.115-.4 1.056 1.056 0 0 0-.324-.33l-1.15-.7h1.626l1.15.7c.14.092.25.205.325.33.075.125.115.26.115.4z"/><path fill="#DDEAFB" d="M7.235 42.59V45H2.812c-.665 0-1.204-.438-1.204-.98 0-.278.146-.544.403-.73l1.054-.7h4.17z"/><path fill="#CBE2FF" d="M5.62745098 42.5892857 7.23529412 42.5892857 7.23529412 45 5.62745098 45z"/><path fill="#444" d="M22.686 27.503a1.292 1.292 0 0 1 .431-1.748l6.352-3.878a1.23 1.23 0 0 1 1.708.441c.352.605.16 1.388-.432 1.749l-6.35 3.878a1.23 1.23 0 0 1-1.709-.442z"/><path fill="#FFD15B" d="M13.667 19.52v6.743h-2.674v1.862h-8.32v-1.862H0V19.52c0-1.46 1.197-2.644 2.674-2.644h1.275l2.726.57 3.041-.568.001-.002h1.276a2.68 2.68 0 0 1 1.89.774c.484.479.784 1.14.784 1.87z"/><path fill="#FFC344" d="M13.667 19.591v6.927h-1.36V19.59a2.714 2.714 0 0 0-2.66-2.714l.001-.002h1.298a2.714 2.714 0 0 1 2.72 2.716z"/><path fill="#FFCEBF" d="M13.667 25.714v3.49c0 .736-.54 1.332-1.207 1.332a1.106 1.106 0 0 1-.603-.179 1.273 1.273 0 0 1-.427-.462 1.425 1.425 0 0 1-.175-.69v-3.49h2.412z"/><path fill="#FFB09E" d="M12.863 25.714v3.49c0 .736-.48 1.332-1.072 1.332a.903.903 0 0 1-.536-.179c.32-.228.537-.66.537-1.152v-3.49h1.07z"/><path fill="#FFCEBF" d="M9.647 12.054v2.012a2.81 2.81 0 0 1-2.813 2.809h-.002a2.807 2.807 0 0 1-.92-.154l-.04-.013a2.811 2.811 0 0 1-1.852-2.642v-2.012l2.814.567 2.813-.567z"/><path fill="#FFB09E" d="M8.843 12.054v2.012c0 1.551-1.143 2.809-2.556 2.809h-.002c-.227 0-.448-.032-.658-.094 1.094-.318 1.899-1.414 1.899-2.715l.018-1.223c.43-.213.856-.25 1.3-.79z"/><path fill="#FFCEBF" d="M2.412 25.714v3.49c0 .736-.54 1.332-1.206 1.332-.22 0-.425-.065-.603-.179-.36-.23-.603-.66-.603-1.152v-3.49h2.412z"/><path fill="#FFB09E" d="M2.412 25.714v3.49c0 .736-.48 1.332-1.072 1.332a.91.91 0 0 1-.536-.179c.32-.23.535-.66.535-1.152v-3.49h1.073z"/><path fill="#FFC344" d="M8.04 19.965v8.16H6.43v-8.16c0-.375.36-.68.804-.68.445 0 .804.305.804.68z"/><path fill="#CBE2FF" d="M9.647 16.875 7.285 20.65a.542.542 0 0 1-.905 0l-2.36-3.773-.001-.001h5.627z"/><path fill="#BAAFB9" d="M8.843 16.875 6.693 20.65a.47.47 0 0 1-.823 0l-.244-.428 1.905-3.346h1.311z"/><path fill="#5A5A5A" d="M9.647 12.069c-.488.622-.976 1.028-1.45 1.273-2.256 1.174-4.177-1.273-4.177-1.273 0-.895.632-1.623 1.41-1.623h2.808c.777 0 1.41.728 1.41 1.623z"/><path fill="#444" d="M9.647 11.797c-.549.518-1.098.856-1.63 1.06v-1.06c0-.745-.71-1.35-1.586-1.35h1.63c.876 0 1.586.605 1.586 1.35z"/><path fill="#FFC344" d="M3.216 20.81v5.708H1.608V20.81c0-.398.36-.72.803-.72.445 0 .805.322.805.72zM11.255 20.778v7.347H9.647v-7.347c0-.38.36-.689.803-.689.445 0 .805.309.805.69z"/></g></g></svg>