<svg xmlns="http://www.w3.org/2000/svg" viewBox="0 0 145 141"><g fill="none" fill-rule="nonzero" stroke="none" stroke-width="1" transform="translate(-1137 -909) translate(1090 864) translate(47 45)"><path fill="#FFCEBF" d="M21 55H1.248C.033 55-.463 56.594.53 57.31L11.2 65l7-4.044L21 55zM124 55h19.752c1.215 0 1.711 1.594.718 2.31L133.8 65l-6.286-4.044L124 55z"/><path fill="#82AEE3" d="m133 65.637-12.569 12.766a16.869 16.869 0 0 1-24.12 0l-2.583-2.624v37.576L71.964 116l-21.692-2.645V75.78l-2.584 2.624a16.87 16.87 0 0 1-24.12 0L11 65.637l9.89-10.044L31.46 66.33a5.826 5.826 0 0 0 8.335 0L50.272 55.69c2.752-3.29 6.087-5.869 9.761-7.63.044-.02.085-.042.128-.06L71.965 47l11.877 1.002a27.85 27.85 0 0 1 3.485 1.965 29.468 29.468 0 0 1 6.4 5.724l10.478 10.638a5.826 5.826 0 0 0 8.336 0l10.57-10.736 4.666 4.74L133 65.637z"/><path fill="#FFCEBF" d="M86 22.827v8.042C86 38.122 79.956 44 72.499 44c-1.076 0-2.12-.121-3.122-.353C63.43 42.277 59 37.076 59 30.869v-8.042L72.463 21 86 22.827z"/><path fill="#FFB09E" d="M86 22.827v8.042C86 38.122 79.819 44 72.192 44c-1.1 0-2.168-.121-3.192-.353 6.085-1.37 10.616-6.571 10.616-12.778v-8.042L82.707 21 86 22.827z"/><path fill="#5A5A5A" d="M51 113 95 113 95 140 51 140z"/><path fill="#444" d="M87 113 94 113 94 140 87 140z"/><path fill="#528FD8" d="M94 75.375V113h-7V72.515c0-1.347 1.751-2.022 2.775-1.07L94 75.376zM134 64.271l-12.955 12.687c-4.615 4.52-11.164 6.003-17.045 4.44a17.562 17.562 0 0 0 7.818-4.44L128.618 59 134 64.271z"/><path fill="#DDEAFB" d="m85 47.585-9.825 17.713-1.151 2.076a1.206 1.206 0 0 1-2.116-.002l-1.156-2.097-1.121-2.034L61 47.585a27.81 27.81 0 0 1 9.752-2.576l2.247.325L75.175 45c1.427.104 2.836.319 4.22.64a28.27 28.27 0 0 1 5.602 1.945H85z"/><path fill="#CBE2FF" d="M84 47 73.287 67.358a1.149 1.149 0 0 1-2.065-.004L69 63.104 78.529 45a26.655 26.655 0 0 1 5.468 2H84z"/><path fill="#FFD15B" d="M28 31.499C28 37.299 23.3 42 17.5 42A10.499 10.499 0 0 1 7 31.499 10.498 10.498 0 0 1 17.5 21C23.3 21 28 25.7 28 31.499z"/><path fill="#FFC344" d="M28 31.499C28 37.299 23.4 42 17.722 42A9.998 9.998 0 0 1 14 41.288c3.837-1.522 6.555-5.33 6.555-9.79 0-4.455-2.718-8.264-6.555-9.786A9.998 9.998 0 0 1 17.722 21C23.4 21 28 25.7 28 31.499z"/><path fill="#FFD15B" d="M136 31.499c0 5.8-4.7 10.501-10.499 10.501-1.304 0-2.552-.236-3.703-.672a10.504 10.504 0 0 1-6.798-9.83c0-4.492 2.826-8.33 6.798-9.826A10.433 10.433 0 0 1 125.5 21C131.3 21 136 25.7 136 31.499z"/><path fill="#FFC344" d="M136 31.499c0 5.8-4.634 10.501-10.349 10.501-1.286 0-2.516-.236-3.651-.672 3.915-1.499 6.698-5.334 6.698-9.83 0-4.492-2.783-8.327-6.698-9.826a10.154 10.154 0 0 1 3.651-.672C131.366 21 136 25.7 136 31.499z"/><path fill="#FFD15B" d="M111 7.001a7 7 0 0 1-9.895 6.372A6.998 6.998 0 0 1 104.002 0 7 7 0 0 1 111 7.001z"/><path fill="#FFC344" d="M111 7.001c0 3.865-3.167 6.999-7.073 6.999a7.06 7.06 0 0 1-2.927-.627c2.447-1.1 4.148-3.54 4.148-6.372s-1.7-5.274-4.148-6.374A7.06 7.06 0 0 1 103.927 0C107.833 0 111 3.134 111 7.001z"/><path fill="#FFD15B" d="M48 7.001a7 7 0 0 1-9.902 6.369A6.996 6.996 0 0 1 34 7 6.997 6.997 0 0 1 41 0a7 7 0 0 1 7 7.001z"/><path fill="#FFC344" d="M48 7.001C48 10.866 44.835 14 40.93 14a7.078 7.078 0 0 1-2.93-.63c2.44-1.103 4.136-3.54 4.136-6.369 0-2.829-1.697-5.268-4.136-6.37A7.078 7.078 0 0 1 40.93 0C44.836 0 48 3.134 48 7.001z"/><path fill="#0473CE" d="M74 65.024V113h-4V65l1.046 2.09c.417.833 1.494.835 1.913.002L74 65.024z"/><path fill="#FD4755" d="M74 54v11.436l-1.041 1.97a1.067 1.067 0 0 1-1.913-.002L70 65.414v-3.846L74 54z"/><path fill="#FE646F" d="M74 45.073v8.097L70 61V45.082A21.265 21.265 0 0 1 71.885 45h.294c.61 0 1.216.023 1.821.073z"/><path fill="#444" d="M72 141c-1.105 0-2-1.03-2-2.303v-15.394c0-1.272.895-2.303 2-2.303s2 1.03 2 2.303v15.394c0 1.272-.895 2.303-2 2.303z"/><path fill="#FFF9DF" d="M19.858 34h-3.716C14.96 34 14 33.105 14 32s.96-2 2.142-2h3.716C21.04 30 22 30.895 22 32s-.959 2-2.142 2zM127.858 34h-3.716c-1.183 0-2.142-.895-2.142-2s.96-2 2.142-2h3.716c1.183 0 2.142.895 2.142 2s-.96 2-2.142 2z"/><path fill="#FFB09E" d="M72 35c-1.105 0-2-.9-2-2.01v-2.98c0-1.11.895-2.01 2-2.01s2 .9 2 2.01v2.98c0 1.11-.895 2.01-2 2.01z"/><path fill="#DDEAFB" d="M110.795 141h-74.59c-1.218 0-2.205-.895-2.205-2s.987-2 2.205-2h74.59c1.218 0 2.205.895 2.205 2s-.987 2-2.205 2z"/><path fill="#87523E" d="M86 22.086V24H59v-1.914C59 17.067 63.015 13 67.967 13h9.063c4.955 0 8.97 4.067 8.97 9.086z"/><path fill="#7C4B37" d="M85 22.086V24h-6.156v-1.914C78.844 17.067 74.885 13 70 13h6.156C81.04 13 85 17.067 85 22.086z"/></g></svg>