<?xml version="1.0" encoding="UTF-8" standalone="no"?>
<svg width="129px" height="129px" viewBox="0 0 129 129" version="1.1" xmlns="http://www.w3.org/2000/svg" xmlns:xlink="http://www.w3.org/1999/xlink">
    <!-- Generator: Sketch 50.2 (55047) - http://www.bohemiancoding.com/sketch -->
    <title>Group 11</title>
    <desc>Created with Sketch.</desc>
    <defs>
        <rect id="path-1" x="0" y="0" width="79" height="79" rx="16"></rect>
        <filter x="-53.8%" y="-41.1%" width="207.6%" height="207.6%" filterUnits="objectBoundingBox" id="filter-2">
            <feOffset dx="0" dy="10" in="SourceAlpha" result="shadowOffsetOuter1"></feOffset>
            <feGaussianBlur stdDeviation="12.5" in="shadowOffsetOuter1" result="shadowBlurOuter1"></feGaussianBlur>
            <feColorMatrix values="0 0 0 0 0.305882353   0 0 0 0 0.450980392   0 0 0 0 0.874509804  0 0 0 0.5 0" type="matrix" in="shadowBlurOuter1"></feColorMatrix>
        </filter>
    </defs>
    <g id="Page-1" stroke="none" stroke-width="1" fill="none" fill-rule="evenodd">
        <g id="Landing-Page-MC" transform="translate(-166.000000, -1509.000000)">
            <g id="Group-11" transform="translate(191.000000, 1524.000000)">
                <g id="Rectangle-6">
                    <use fill="black" fill-opacity="1" filter="url(#filter-2)" xlink:href="#path-1"></use>
                    <use fill="#4E73DF" fill-rule="evenodd" xlink:href="#path-1"></use>
                </g>
                <g id="050-time-management" transform="translate(23.000000, 17.000000)" fill-rule="nonzero">
                    <path d="M37,2.46125407 L37,4.37757108 L34,5 L31,4.37757108 L31,2.46125407 C31,2.20650802 31.2079173,2 31.4644018,2 L36.5355982,2 C36.7920827,2 37,2.20650802 37,2.46125407 Z" id="Shape" fill="#5A5A5A"></path>
                    <path d="M36,2.54158341 L36,4.79163509 L35.2091766,5 L34.4293322,4.79163509 L34.4293322,2.54158341 C34.4293322,2.24288569 34.2367882,2 34,2 L35.5706678,2 C35.807456,2 36,2.24288569 36,2.54158341 Z" id="Shape" fill="#444444"></path>
                    <path d="M29.9110635,27.7819395 L26.3591075,28.7895587 C25.5952119,29.0062211 25.5937664,29.7837096 25.5255533,30.4235505 C25.1442832,33.9962801 22.1040603,36.6280144 18.5958329,36.6280144 C18.2606404,36.6280144 17.920027,36.6037712 17.5767032,36.553489 C17.0698488,36.4789636 16.6352731,36.9153412 16.7138762,37.4190611 L17.9037643,45 L2.49213837,45 C2.49213837,41.1445228 2.61591564,37.2601334 2.26798404,33.4164187 C1.93694759,29.7593766 1.28517441,26.1172396 0.753654915,22.485608 C0.550461417,21.0973704 0.34726792,19.7091329 0.143984074,18.3208055 C-1.05222842,10.1553361 5.36521672,3 13.443265,3 C17.8206438,3 21.983897,5.14776809 24.5037132,8.70343766 C26.7743486,11.9080298 27.0871347,15.4266162 26.7261026,19.179823 C26.7040575,19.4094151 26.756821,19.6399949 26.8796948,19.8356465 L30.8732737,26.1953566 C31.2545439,26.9154695 30.7296198,27.7819395 29.9110635,27.7819395 Z" id="Shape" fill="#FFCEBF"></path>
                    <path d="M22,15.5 C22,19.7149577 18.9315539,23.2119979 14.9070825,23.8831924 C14.4488372,23.9595666 13.9798097,24 13.5,24 C13.009408,24 12.5286998,23.9586681 12.0605708,23.8778013 C8.05137421,23.194926 5,19.703277 5,15.5 C5,11.2958245 8.05137421,7.805074 12.0605708,7.12219873 C12.5286998,7.04133192 13.009408,7 13.5,7 C13.9798097,7 14.4488372,7.03953488 14.9070825,7.11680761 C18.9315539,7.78710359 22,11.2850423 22,15.5 Z" id="Shape" fill="#FE646F"></path>
                    <path d="M22,15.5 C22,19.7149577 18.9128548,23.2119979 14.8638583,23.8831924 C14.4028205,23.9595666 13.9309347,24 13.448201,24 C12.9546194,24 12.4709817,23.9586681 12,23.8778013 C16.0345326,23.194926 19.1072139,19.705074 19.1072139,15.5 C19.1072139,11.294926 16.0345326,7.80417548 12,7.12219873 C12.4709817,7.04133192 12.9546194,7 13.448201,7 C13.9309347,7 14.4028205,7.03953488 14.8638583,7.11680761 C18.9128548,7.78710359 22,11.2850423 22,15.5 Z" id="Shape" fill="#FD4755"></path>
                    <path d="M14,0.458641064 L14,3 L12,3 L12,0.458641064 C12,0.20534712 12.1715661,0 12.3831914,0 L13.6168086,0 C13.8284339,0 14,0.20534712 14,0.458641064 Z" id="Shape" fill="#DDEAFB"></path>
                    <path d="M14,0.458197932 L14,3 L13.3107379,3 L13.3107379,0.458197932 C13.3107379,0.205612999 13.1715657,0 13,0 L13.6892621,0 C13.8608278,0 14,0.205612999 14,0.458197932 Z" id="Shape" fill="#CBE2FF"></path>
                    <path d="M21,10.5 C21,14.6415501 17.6415501,18 13.5,18 C13.2273053,18 12.9581988,17.9856476 12.6926803,17.9569429 C8.92967348,17.5541801 6,14.3688554 6,10.5 C6,6.63024758 8.92967348,3.44581988 12.6926803,3.04305705 C12.9581988,3.01435235 13.2273053,3 13.5,3 C17.6415501,3 21,6.35755292 21,10.5 Z" id="Shape" fill="#DDEAFB"></path>
                    <path d="M21,10.5 C21,14.6415501 17.765792,18 13.7774538,18 C13.5148472,18 13.2556959,17.9856476 13,17.9569429 C16.6220711,17.5541801 19.4442285,14.3688554 19.4442285,10.5 C19.4442285,6.63024758 16.6220711,3.44581988 13,3.04305705 C13.2556959,3.01435235 13.5148472,3 13.7774538,3 C17.765792,3 21,6.35755292 21,10.5 Z" id="Shape" fill="#CBE2FF"></path>
                    <path d="M42,7.50150947 L42,16.165079 C42,17.1782474 41.1661879,18 40.1370359,18 L26.8629641,18 C25.8338121,18 25,17.1782474 25,16.165079 L25,7.50150947 L33.5,7 L42,7.50150947 Z" id="Shape" fill="#DDEAFB"></path>
                    <path d="M42,7.35801193 L42,16.1399985 C42,17.1670154 41.1443155,18 40.0881671,18 L38,18 C39.0561485,18 39.9118329,17.1670154 39.9118329,16.1399985 L39.9118329,7 L42,7.35801193 Z" id="Shape" fill="#CBE2FF"></path>
                    <path d="M18,10.5 C18,12.984945 15.984945,15 13.5,15 C13.1925304,15 12.8928778,14.9696005 12.6027794,14.9105385 C10.5477707,14.4944991 9,12.6774754 9,10.5 C9,8.32252461 10.5477707,6.50550087 12.6027794,6.08946149 C12.8928778,6.03039954 13.1925304,6 13.5,6 C15.984945,6 18,8.01505501 18,10.5 Z" id="Shape" fill="#FFF9DF"></path>
                    <path d="M19,10.5 C19,12.984945 16.759897,15 13.9974252,15 C13.6556164,15 13.3224976,14.9696005 13,14.9105385 C15.2845188,14.4936306 17.0041841,12.6774754 17.0041841,10.5 C17.0041841,8.32252461 15.2845188,6.50636943 13,6.08946149 C13.3224976,6.03039954 13.6556164,6 13.9974252,6 C16.759897,6 19,8.01505501 19,10.5 Z" id="Shape" fill="#FFF0AD"></path>
                    <path d="M42,5.97255027 L42,7 L25,7 L25,5.97255027 C25,4.88285988 25.8338121,4 26.8629641,4 L40.1370359,4 C41.1661879,4 42,4.88285988 42,5.97255027 Z" id="Shape" fill="#FE646F"></path>
                    <path d="M42,5.97255027 L42,7 L39.9118329,7 L39.9118329,5.97255027 C39.9118329,4.88285988 39.0561485,4 38,4 L40.0881671,4 C41.1443155,4 42,4.88285988 42,5.97255027 Z" id="Shape" fill="#FD4755"></path>
                    <path d="M18,44 L12,44 L12,36.8139672 C12,35.6824167 13.0436314,34.8272112 14.1772358,35.0298346 L17.6729901,35.6546492 C17.166215,35.5810163 16.7317073,36.0121677 16.8102981,36.5098547 L18,44 Z" id="Shape" fill="#FFB09E"></path>
                    <path d="M13.5000464,16 C10.4673608,16 8,13.5327527 8,10.5 C8,7.46724725 10.4672681,5 13.5000464,5 C16.5328247,5 19,7.46724725 19,10.5 C19,13.5327527 16.5328247,16 13.5000464,16 Z M13.5000464,6.3911361 C11.2342958,6.3911361 9.39105509,8.2343613 9.39105509,10.5000927 C9.39105509,12.7658242 11.2342958,14.6090494 13.5000464,14.6090494 C15.7657042,14.6090494 17.6089449,12.7658242 17.6089449,10.5000927 C17.6089449,8.2343613 15.7657042,6.3911361 13.5000464,6.3911361 Z" id="Shape" fill="#FFC344"></path>
                    <path d="M15.407848,10 L13.592152,10 C13.2650472,10 13,9.73495276 13,9.40784799 L13,7.59215201 C13,7.26504724 13.2650472,7 13.592152,7 C13.9192568,7 14.184304,7.26504724 14.184304,7.59215201 L14.184304,8.81569598 L15.407848,8.81569598 C15.7349528,8.81569598 16,9.08074322 16,9.40784799 C16,9.73495276 15.7349528,10 15.407848,10 Z" id="Shape" fill="#444444"></path>
                    <path d="M24.3164169,45 L0.683583069,45 C0.305971782,45 0,44.7762 0,44.5 C0,44.2238 0.305971782,44 0.683583069,44 L24.3164169,44 C24.6940282,44 25,44.2238 25,44.5 C25,44.7762 24.6939371,45 24.3164169,45 Z" id="Shape" fill="#AA6A51"></path>
                    <path d="M30.233599,13 L28.766401,13 C28.3430411,13 28,12.7762 28,12.5 C28,12.2238 28.3430411,12 28.766401,12 L30.233599,12 C30.6569589,12 31,12.2238 31,12.5 C31,12.7762 30.6569589,13 30.233599,13 Z" id="Shape" fill="#FFF9DF"></path>
                    <path d="M34.233599,13 L32.766401,13 C32.3430411,13 32,12.7762 32,12.5 C32,12.2238 32.3430411,12 32.766401,12 L34.233599,12 C34.6569589,12 35,12.2238 35,12.5 C35,12.7762 34.6569589,13 34.233599,13 Z" id="Shape" fill="#FFF9DF"></path>
                    <path d="M38.3466795,10 L28.6533205,10 C28.2924262,10 28,9.7762 28,9.5 C28,9.2238 28.2924262,9 28.6533205,9 L38.3466795,9 C38.7075738,9 39,9.2238 39,9.5 C39,9.7762 38.7075738,10 38.3466795,10 Z" id="Shape" fill="#FFF9DF"></path>
                    <path d="M39.233599,13 L37.766401,13 C37.3430411,13 37,12.7762 37,12.5 C37,12.2238 37.3430411,12 37.766401,12 L39.233599,12 C39.6569589,12 40,12.2238 40,12.5 C40,12.7762 39.6569589,13 39.233599,13 Z" id="Shape" fill="#FFF9DF"></path>
                    <path d="M30.233599,15 L28.766401,15 C28.3430411,15 28,14.7762 28,14.5 C28,14.2238 28.3430411,14 28.766401,14 L30.233599,14 C30.6569589,14 31,14.2238 31,14.5 C31,14.7762 30.6569589,15 30.233599,15 Z" id="Shape" fill="#FFF9DF"></path>
                    <path d="M34.233599,15 L32.766401,15 C32.3430411,15 32,14.7762 32,14.5 C32,14.2238 32.3430411,14 32.766401,14 L34.233599,14 C34.6569589,14 35,14.2238 35,14.5 C35,14.7762 34.6569589,15 34.233599,15 Z" id="Shape" fill="#FFF9DF"></path>
                </g>
            </g>
        </g>
    </g>
</svg>