<svg xmlns="http://www.w3.org/2000/svg" viewBox="0 0 323 351"><g fill="none" fill-rule="nonzero" stroke="none" stroke-width="1" transform="translate(0 -2378) translate(-84 2378)"><path fill="#FFCEBF" d="M333.507 53.38 304.247 82 302 64.83l2.247-12.902 14.916-4.07 9.794-2.678c4.772-1.296 8.117 4.713 4.55 8.2z"/><path fill="#FFB09E" d="M333.503 53.38 304.158 82 303 73.173l1.158-6.218 13.922-13.574c1.664-1.627 1.827-3.792 1.038-5.523l9.821-2.678c4.787-1.296 8.14 4.713 4.564 8.2zM85 159.184l-11.621 22.495c-4.172 8.096-16.276 6.617-18.379-2.153l10.508-20.342L72.847 157 85 159.184z"/><path fill="#82AEE3" d="M305 52v29.725l-20.643 4.152C269.734 88.818 253.897 94 238.893 94H162V64.275h76.893c15.004 0 30.84-5.182 45.464-8.123L305 52z"/><path fill="#528FD8" d="M305 52 305 81.8330373 284 86 284 56.1669627z"/><path fill="#0473CE" d="M135.215 284 139 317l-3.785 33H6.53C2.924 350 0 347.089 0 343.498v-52.996C0 286.912 2.924 284 6.53 284h128.685z"/><path fill="#0067C5" d="M135.23005 284 139 317 135.23005 350 115 350 115 284z"/><path fill="#528FD8" d="M270.302 253 277 301.5l-6.698 48.5H135v-90.486c0-3.597 2.925-6.514 6.534-6.514h128.768z"/><path fill="#0473CE" d="M271.308432 253 278 301.5 271.308432 350 251 350 251 253z"/><path fill="#82AEE3" d="M406 226.545v117.91c0 3.614-2.92 6.545-6.52 6.545H271V226.545c0-3.614 2.92-6.545 6.52-6.545h121.96c3.6 0 6.52 2.93 6.52 6.545z"/><path fill="#528FD8" d="M407 226.545v117.91c0 3.61-2.96 6.545-6.605 6.545H382c3.644 0 6.605-2.934 6.605-6.545v-117.91c0-3.61-2.961-6.545-6.605-6.545h18.395c3.644 0 6.605 2.934 6.605 6.545z"/><path fill="#82AEE3" d="m199 65-10.829 95.132L155.157 164l-31.195-3.868 6.737-59.18c-14.798 7.861-30.33 14.45-36.535 31.529l-10.048 27.65H50l18.215-45.94c8.377-21.091 36.463-31.565 54.794-42.298A50.37 50.37 0 0 1 148.429 65H199z"/><path fill="#528FD8" d="M94.634 110.004 131 101c-14.828 7.837-30.393 14.405-36.61 31.433L84.321 160H65l10.06-27.567a41.467 41.467 0 0 1 19.574-22.429z"/><path fill="#528FD8" d="M199 65 188.211057 159.734644 178.506191 162 169 159.734644 179.788943 65z"/><path fill="#5A5A5A" d="M236 189.515v42.379l-14.618 3.9-17.669-3.9v-28.995c0-5.869-4.771-10.627-10.655-10.627H146.31l-12.802 27.608a27.01 27.01 0 0 1-3.302 5.365l-29.862 37.638L79.885 267 61 262.883c.382-.98.93-1.907 1.634-2.722l27.454-32.003a49.89 49.89 0 0 0 7.84-11.928L124.226 160h82.181c16.34 0 29.593 13.21 29.593 29.515z"/><path fill="#444" d="M236 189.51v42.37l-8.02 2.12-7.126-2.12v-42.37c0-16.302-13.375-29.51-29.854-29.51h15.137C222.625 160 236 173.208 236 189.51z"/><path fill="#DDEAFB" d="M258 254h-45.55c-5.22 0-9.45-4.235-9.45-9.443V232h32.991C248.14 232 258 241.852 258 254z"/><path fill="#CBE2FF" d="M258 254h-15.173c0-12.148-9.778-22-21.827-22h15.173C248.22 232 258 241.852 258 254z"/><path fill="#444" d="m146 192-12.804 27.543a26.959 26.959 0 0 1-3.308 5.359L99.98 262.486 92.438 264 85 262.486l36.271-38.086c1.288-1.628 24.015-31.474 24.729-32.4z"/><path fill="#DDEAFB" d="M115 277.91V285H69.71c-5.36 0-9.71-4.35-9.71-9.708v-8.708a9.49 9.49 0 0 1 .696-3.584h39.39c8.129 0 14.914 6.784 14.914 14.91z"/><path fill="#CBE2FF" d="M115 277.91V285H99.844c0-10.07-1.719-22-14.844-22h15.156c8.09 0 14.844 6.784 14.844 14.91z"/><path fill="#FFCEBF" d="M193 22.333v21.514C193 54.977 183.82 64 172.496 64c-2.514 0-4.923-.448-7.148-1.266C157.553 59.894 152 52.507 152 43.847V22.333L174.055 20 193 22.333z"/><path fill="#FFB09E" d="M192 22.784V44.58C192 55.859 183.037 65 171.979 65c-2.455 0-4.807-.454-6.979-1.282 7.612-2.887 13.034-10.362 13.034-19.137L178.038 21 192 22.784z"/><path fill="#5A5A5A" d="M205 11.496C205 17.71 199.657 23 193.352 23H152V11.796C152 5.28 157.346 0 163.944 0h29.408C199.784 0 205 5.151 205 11.496z"/><path fill="#444" d="M205 11.496C205 17.71 199.635 23 193.303 23H180c6.318 0 11.697-5.277 11.697-11.504C191.697 5.15 186.459 0 180 0h13.303C199.763 0 205 5.151 205 11.496z"/><path fill="#FFC344" d="m335.704 179.639-18.195 9.651c-4.407 2.338-9.558-1.438-8.716-6.39l3.475-20.442a6.097 6.097 0 0 0-1.727-5.365l-14.72-14.478c-3.566-3.506-1.598-9.616 3.33-10.339l20.341-2.982a6.012 6.012 0 0 0 4.523-3.316l9.098-18.6c2.204-4.504 8.57-4.504 10.774 0l9.098 18.6a6.01 6.01 0 0 0 4.523 3.316l20.342 2.982c4.927.723 6.895 6.832 3.33 10.34l-14.72 14.477a6.095 6.095 0 0 0-1.728 5.365l3.475 20.443c.841 4.952-4.31 8.727-8.717 6.39l-18.194-9.652a5.963 5.963 0 0 0-5.592 0z"/></g></svg>