<svg xmlns="http://www.w3.org/2000/svg" viewBox="0 0 166 128"><g fill="none" fill-rule="nonzero" stroke="none" stroke-width="1" transform="translate(-152 -915) translate(120 864) translate(32.857 51.29)"><path fill="#FFCEBF" d="M64.111 12.02v17.575c0 3.42-2.702 6.197-6.04 6.197h-1.737v8.285H41.672l1.504-9.083 1.39-22.973H64.11z"/><path fill="#FFB09E" d="M57.7 35.261v8.816h-4.808v-7.188c0-.899.783-1.628 1.75-1.628H57.7z"/><path fill="#87523E" d="M71.324 6.278a6.33 6.33 0 0 1-1.868 4.584 6.351 6.351 0 0 1-4.508 1.864H51.632a3.86 3.86 0 0 0-3.864 3.856v13.78a4.105 4.105 0 0 1-4.11 4.098h-8.966c-2.808 0-4.84-2.681-4.077-5.382l2.69-9.487a27.897 27.897 0 0 0 1.061-7.616v-.004C34.366 5.362 39.736 0 46.361 0h18.423c3.515 0 6.49 2.77 6.54 6.278z"/><path fill="#7C4B37" d="M46.675 13.624h5.416a3.979 3.979 0 0 0-3.978 3.98v14.227a4.232 4.232 0 0 1-4.23 4.232h-5.416a4.232 4.232 0 0 0 4.23-4.232V17.605a3.979 3.979 0 0 1 3.978-3.981zM71.323 6.325a6.342 6.342 0 0 1-1.902 4.62 6.506 6.506 0 0 1-4.592 1.877h-5.358c1.795 0 3.42-.717 4.591-1.878a6.342 6.342 0 0 0 1.903-4.619C65.915 2.791 62.883 0 59.303 0h5.359c3.58 0 6.611 2.79 6.661 6.325z"/><path fill="#FFD15B" d="M60.906 44.336v45.966l-16.83 3.461-16.829-3.46 4.38-42.476c.409-3.95 3.77-6.956 7.778-6.956H57.41c1.932 0 3.495 1.55 3.495 3.465z"/><path fill="#FFC344" d="M60.906 44.347V90.46l-4.508.9-2.297-.9V44.347c0-1.921-1.616-3.476-3.613-3.476h6.805c1.997 0 3.613 1.555 3.613 3.476z"/><path fill="#5A5A5A" d="m77.784 91.359 3.157 10.017-3.157 10.018H42.786c-8.901 0-15.986-7.532-15.517-16.5l.358-3.535h50.157z"/><path fill="#444" d="M78.3692871 91.358885 81.7421603 101.376307 78.3692871 111.393728 69.7212544 111.393728 69.7212544 91.358885z"/><path fill="#DDEAFB" d="M134.633 68.92c-.24 0-.484-.037-.725-.114-1.264-.407-1.965-1.779-1.566-3.064l11.224-35.988c.4-1.285 1.748-1.997 3.014-1.591 1.264.406 1.965 1.778 1.566 3.063l-11.224 35.988a2.408 2.408 0 0 1-2.289 1.706z"/><path fill="#DDEAFB" d="M98.5714286 63.3101045 137.839721 63.3101045 137.839721 73.728223 98.5714286 73.728223z"/><path fill="#CBE2FF" d="M128.222997 63.3101045 138.641115 63.3101045 138.641115 73.728223 128.222997 73.728223z"/><path fill="#5A5A5A" d="M59.302 118.71c-.076 4.42-3.785 7.91-8.176 7.91H18.884C8.453 126.62 0 118.106 0 107.607V49.733c0-1.959.816-3.602 2.054-4.736 2.182-2.015 5.688-2.452 8.36-.281a6.385 6.385 0 0 1 1.69 2.08c.4.796.644 1.681.69 2.596l2.812 53.436c.227 4.312 3.765 7.689 8.05 7.689h27.65a7.93 7.93 0 0 1 5.652 2.36 8.05 8.05 0 0 1 2.344 5.832z"/><path fill="#444" d="M24.042 110.592h-9.023c-4.452 0-8.127-3.38-8.363-7.697l-2.92-53.496a6.318 6.318 0 0 0-2.133-4.4c2.267-2.017 5.908-2.455 8.684-.282a6.444 6.444 0 0 1 1.754 2.084c.417.796.67 1.682.718 2.598l2.92 53.496c.236 4.316 3.911 7.697 8.363 7.697zM59.302 119.548c-.076 4.4-3.778 7.874-8.16 7.874h-8.668c4.382 0 8.084-3.474 8.16-7.874a8 8 0 0 0-2.34-5.806 7.924 7.924 0 0 0-5.64-2.348h8.67c2.203 0 4.197.897 5.64 2.348a8 8 0 0 1 2.338 5.806z"/><path fill="#FFCEBF" d="M103.38 72.927H90.716l-1.761-6.072 1.761-6.75c6.994 0 12.664 5.74 12.664 12.822z"/><path fill="#FFD15B" d="M90.557 60.335v12.592H71.53c-4.681 0-9.133-2.002-12.176-5.482L45.73 51.882c-2.75-3.144-1.849-7.528 1.082-9.691 1.106-.818 2.5-1.32 4.096-1.32a6.883 6.883 0 0 1 5.076 2.221l11.018 12.025c3.043 3.322 7.383 5.218 11.939 5.218h11.616z"/><path fill="#FFC344" d="M79.338 60.906h-8.14a15.922 15.922 0 0 1-11.912-5.37L48.508 42.581c-.308-.344-.78-.455-1.226-.353 1.103-.841 2.495-1.358 4.087-1.358a6.76 6.76 0 0 1 5.065 2.286l10.992 12.378a15.927 15.927 0 0 0 11.912 5.37z"/><path fill="#FFF0AD" d="M113.798 19.233c-1.328 0-2.404-1.115-2.404-2.491v-5.435c0-1.376 1.076-2.492 2.404-2.492 1.328 0 2.404 1.116 2.404 2.492v5.435c0 1.376-1.076 2.491-2.404 2.491zM100.871 21.638c-.967 0-1.888-.539-2.3-1.442l-2.193-4.806c-.555-1.217.024-2.635 1.294-3.167 1.269-.532 2.749.023 3.304 1.24l2.193 4.806c.555 1.217-.024 2.634-1.294 3.167a2.597 2.597 0 0 1-1.004.202zM125.923 21.638c-.336 0-.677-.065-1.004-.203-1.27-.532-1.849-1.95-1.293-3.166l2.193-4.806c.555-1.217 2.036-1.773 3.304-1.24 1.27.532 1.849 1.95 1.293 3.167l-2.193 4.806c-.412.903-1.333 1.442-2.3 1.442z"/><path fill="#DDEAFB" d="M164.286 85.462v39.383a2.576 2.576 0 0 1-2.575 2.577H80.31a2.576 2.576 0 0 1-2.575-2.577V85.463l56.553-2.92 29.998 2.919z"/><path fill="#CBE2FF" d="M164.286 85.797v39.067c0 1.412-1.221 2.558-2.726 2.558h-9.295c1.505 0 2.725-1.146 2.725-2.558V84.948l9.296.849z"/><path fill="#5A5A5A" d="M164.286 77.236v9.315h-86.55V74.53h83.975c1.422 0 2.575 1.211 2.575 2.706z"/><path fill="#444" d="M164.286 77.237v9.314h-9.296v-9.314a2.717 2.717 0 0 0-2.725-2.707h9.295a2.717 2.717 0 0 1 2.726 2.707z"/></g></svg>