<svg xmlns="http://www.w3.org/2000/svg" viewBox="0 0 169 158"><g fill="none" fill-rule="nonzero" stroke="none" stroke-width="1" transform="translate(-806 -900) translate(770 864) translate(36.864 36.864)"><path fill="#5A5A5A" d="M34.46 2.125v8.072l-8.014 1.824-8.014-1.824V2.125C18.432.951 19.344 0 20.47 0h11.952c1.125 0 2.038.952 2.038 2.125z"/><path fill="#444" d="M35.261 2.125v8.072l-3.606 1.824-3.606-1.824V2.125C28.049.951 28.977 0 30.123 0h3.065c1.145 0 2.073.952 2.073 2.125z"/><path fill="#5A5A5A" d="M148.258 2.125v8.072l-8.014 1.824-8.014-1.824V2.125c0-1.174.912-2.125 2.038-2.125h11.952c1.125 0 2.038.952 2.038 2.125z"/><path fill="#444" d="M149.06 2.125v8.072l-3.607 1.824-3.606-1.824V2.125c0-1.174.928-2.125 2.074-2.125h3.064c1.146 0 2.074.952 2.074 2.125z"/><path fill="#DDEAFB" d="M167.491 18.51v91.204c0 4.468-3.607 8.09-8.057 8.09H9.414c-5.2 0-9.414-4.235-9.414-9.453v-88.48c0-5.217 4.215-9.453 9.414-9.453h150.02c4.45 0 8.057 3.623 8.057 8.091z"/><path fill="#CBE2FF" d="M167.491 18.507v91.209c0 4.467-3.6 8.089-8.046 8.089h-8.783c4.442 0 9.05-3.622 9.05-8.09V18.508c0-4.467-3.605-8.089-8.047-8.089h7.78c4.445 0 8.046 3.622 8.046 8.09z"/><circle cx="47.683" cy="41.272" r="19.634" fill="#82AEE3" transform="rotate(-76.7 47.683 41.272)"/><path fill="#FFF9DF" d="M116.377 40.07H86.376c-1.231 0-2.23-1.019-2.23-2.275v-8.273c0-1.256.999-2.275 2.23-2.275h30c1.232 0 2.23 1.019 2.23 2.275v8.273c0 1.256-.998 2.275-2.23 2.275z"/><path fill="#528FD8" d="M67.317 41.672H47.282V21.638c11.065 0 20.035 8.97 20.035 20.034z"/><path fill="#82AEE3" d="M147.456 119.576v33.49H93.763v-33.49c0-8.504 6.913-15.395 15.447-15.395h22.8c8.53 0 15.446 6.891 15.446 15.395z"/><path fill="#528FD8" d="M147.456 119.576v33.49h-10.113v-33.49c0-8.504-6.955-15.395-15.531-15.395h10.113c8.577 0 15.531 6.891 15.531 15.395z"/><path fill="#5A5A5A" d="M147.456 138.826v14.24H93.763v-14.24c0-8.514 6.917-15.411 15.447-15.411h22.803c1.895 0 3.709.34 5.388.963 5.875 2.182 10.055 7.825 10.055 14.448zM129.937 70.523h-17.052c-3.036 0-5.498 2.454-5.498 5.48V91.002c0 5.971 3.756 11.073 9.046 13.073 1.548.588 3.223.908 4.976.908 7.748 0 14.027-6.262 14.027-13.98v-15c0-3.026-2.463-5.48-5.499-5.48z"/><path fill="#444" d="M128.5 70.523h-9.654c2.945 0 5.333 2.454 5.333 5.48V91.002c0 5.971-3.647 11.073-8.778 13.073 1.501.588 3.126.908 4.827.908 7.515 0 13.605-6.262 13.605-13.98v-15c0-3.026-2.388-5.48-5.334-5.48z"/><path fill="#A274BF" d="M75.331 119.576v33.49H21.638v-33.49c0-8.504 6.913-15.395 15.447-15.395h22.8c8.53 0 15.446 6.891 15.446 15.395z"/><path fill="#925CB4" d="M74.53 119.576v33.49H64.416v-33.49c0-8.504-6.954-15.395-15.531-15.395h10.114c8.576 0 15.53 6.891 15.53 15.395z"/><path fill="#5A5A5A" d="M75.331 138.826v14.24H21.638v-14.24c0-8.514 6.917-15.411 15.447-15.411h22.803c1.894 0 3.709.34 5.387.963 5.875 2.182 10.056 7.825 10.056 14.448z"/><path fill="#444" d="M137.497 124.378a15.15 15.15 0 0 0-5.336-.963h-9.548c1.877 0 3.674.339 5.337.963 5.818 2.182 9.959 7.824 9.959 14.448v14.24h9.547v-14.24c0-6.624-4.14-12.266-9.959-14.448zM64.57 124.378a15.15 15.15 0 0 0-5.336-.963h-9.548c1.877 0 3.674.339 5.337.963 5.818 2.182 9.96 7.824 9.96 14.448v14.24h9.547v-14.24c0-6.624-4.141-12.266-9.96-14.448z"/><path fill="#5A5A5A" d="M57.01 70.523H39.958c-3.036 0-5.498 2.454-5.498 5.48V91.002c0 5.971 3.756 11.073 9.046 13.073 1.548.588 3.223.908 4.976.908 7.748 0 14.027-6.262 14.027-13.98v-15c0-3.026-2.462-5.48-5.499-5.48z"/><path fill="#444" d="M55.572 70.523H45.92c2.945 0 5.333 2.454 5.333 5.48V91.002c0 5.971-3.647 11.073-8.778 13.073 1.501.588 3.126.908 4.827.908 7.515 0 13.605-6.262 13.605-13.98v-15c0-3.026-2.388-5.48-5.334-5.48zM158.548 156.272H93.89c-1.399 0-2.532-1.077-2.532-2.404 0-1.328 1.133-2.405 2.532-2.405h64.657c1.399 0 2.532 1.077 2.532 2.405 0 1.327-1.133 2.404-2.532 2.404zM82.419 156.272H8.139c-1.397 0-2.53-1.077-2.53-2.404 0-1.328 1.133-2.405 2.53-2.405h74.28c1.397 0 2.529 1.077 2.529 2.405 0 1.327-1.132 2.404-2.529 2.404z"/><path fill="#FFF9DF" d="M144.916 54.495H86.687c-1.403 0-2.54-1.077-2.54-2.404 0-1.328 1.137-2.405 2.54-2.405h58.229c1.403 0 2.54 1.077 2.54 2.405 0 1.327-1.137 2.404-2.54 2.404zM144.958 35.261h-14.236c-1.38 0-2.499-1.076-2.499-2.404 0-1.328 1.118-2.404 2.499-2.404h14.236c1.38 0 2.498 1.076 2.498 2.404 0 1.328-1.118 2.404-2.498 2.404z"/></g></svg>