<svg xmlns="http://www.w3.org/2000/svg" xmlns:xlink="http://www.w3.org/1999/xlink" viewBox="0 0 129 129"><defs><rect id="b" width="79" height="79" x="0" y="0" rx="16"/><filter id="a" width="207.6%" height="207.6%" x="-53.8%" y="-41.1%" filterUnits="objectBoundingBox"><feOffset dy="10" in="SourceAlpha" result="shadowOffsetOuter1"/><feGaussianBlur in="shadowOffsetOuter1" result="shadowBlurOuter1" stdDeviation="12.5"/><feColorMatrix in="shadowBlurOuter1" values="0 0 0 0 0.305882353 0 0 0 0 0.450980392 0 0 0 0 0.874509804 0 0 0 0.5 0"/></filter></defs><g fill="none" fill-rule="evenodd" stroke="none" stroke-width="1"><g transform="translate(-166 -1768) translate(191 1783)"><use fill="#000" filter="url(#a)" xlink:href="#b"/><use fill="#4E73DF" xlink:href="#b"/></g><g fill-rule="nonzero"><path fill="#AA6A51" d="M24.711 22a.677.677 0 0 1-.54-.281c-.255-.338-.221-.847.077-1.138l7.577-7.386c.298-.29.747-.252 1.003.086.256.338.222.847-.076 1.138l-7.577 7.386a.661.661 0 0 1-.464.195zM32.313 38a.695.695 0 0 1-.522-.233l-7.625-8.666a.653.653 0 0 1 .074-.94.702.702 0 0 1 .969.072l7.625 8.666c.247.28.214.7-.074.94a.697.697 0 0 1-.447.161z" transform="translate(-166 -1768) translate(191 1783) translate(18 18)"/><path fill="#FFCEBF" d="m20 9-.562 14.672c-.101 2.622-2.274 4.733-4.999 4.853-.46 0-.891.154-1.23.418a1.87 1.87 0 0 0-.686 1.067l-.508 1.537-5.07.453L1 31.547l1.675-5.878L2.03 9H20z" transform="translate(-166 -1768) translate(191 1783) translate(18 18)"/><path fill="#FFB09E" d="M15 28.535c-.455 0-.88.154-1.215.416-.335.262-.58.633-.677 1.065l-.502 1.532L8 32l1.355-4.757a.343.343 0 0 1 .553-.159c.646.563 2.164 1.5 5.092 1.45z" transform="translate(-166 -1768) translate(191 1783) translate(18 18)"/><path fill="#FFF9DF" d="M15 33.236v1.293L9.306 35 1 34.529V31h11.614C13.93 31 15 32 15 33.236z" transform="translate(-166 -1768) translate(191 1783) translate(18 18)"/><path fill="#FFF0AD" d="M14 33.301v1.33L12.132 35v-1.699C12.132 32.03 11.177 31 10 31h1.868C13.045 31 14 32.03 14 33.301z" transform="translate(-166 -1768) translate(191 1783) translate(18 18)"/><path fill="#A274BF" d="M24 41.791C24 42.46 23.522 43 22.933 43H2.067C1.477 43 1 42.459 1 41.791V34h16.124C20.92 34 24 37.488 24 41.791z" transform="translate(-166 -1768) translate(191 1783) translate(18 18)"/><path fill="#925CB4" d="M25 41.791C25 42.46 24.52 43 23.927 43h-3.691l.71-.227c.6-.191.977-.856.883-1.55C21.308 37.395 18.449 34 15 34h3.087C21.905 34 25 37.488 25 41.791z" transform="translate(-166 -1768) translate(191 1783) translate(18 18)"/><path fill="#87523E" d="M24 7.843c0 2.608-2.023 4.748-4.576 4.84l-3.436.111-9.344.302a.842.842 0 0 0-.806.85v2.37c0 .31-.246.561-.55.561h-1.4c-.603 0-1.091.499-1.091 1.114v2.25c0 .614.488 1.112 1.09 1.112h1.401c.304 0 .55.251.55.562v1.683C5.838 24.925 4.785 26 3.486 26c-.606 0-1.161-.233-1.58-.62a2.41 2.41 0 0 1-.76-1.545L.026 12.257c-.298-3.093 1.948-5.835 4.98-6.081l4.637-.38a20.186 20.186 0 0 0 6.7-1.736l1.464-.665.334-.151c.355-.16.739-.244 1.127-.244a4.68 4.68 0 0 1 3.33 1.404A4.874 4.874 0 0 1 24 7.844z" transform="translate(-166 -1768) translate(191 1783) translate(18 18)"/><path fill="#7C4B37" d="M24 7.45c0 2.397-2.272 4.363-5.14 4.448L15 12l.119-.102c2.867-.085 5.14-2.05 5.14-4.448 0-1.245-.608-2.358-1.576-3.16a5.492 5.492 0 0 0-1.64-.927l.376-.139A3.66 3.66 0 0 1 18.684 3c1.443 0 2.772.49 3.74 1.29C23.392 5.092 24 6.205 24 7.45z" transform="translate(-166 -1768) translate(191 1783) translate(18 18)"/><path fill="#FFF9DF" d="M47 2.147v11.705A2.148 2.148 0 0 1 44.852 16l-2.769-.004L39 15.524 35.916 16h-2.768A2.148 2.148 0 0 1 31 13.852V2.147C31 .962 31.96 0 33.148 0h11.704C46.038 0 47 .962 47 2.147z" transform="translate(-166 -1768) translate(191 1783) translate(18 18)"/><path fill="#FFF0AD" d="M47 2.147v11.705C47 15.038 46.202 16 45.219 16H43c.983 0 1.781-.962 1.781-2.148V2.147C44.781.962 43.983 0 43 0h2.219C46.202 0 47 .962 47 2.147z" transform="translate(-166 -1768) translate(191 1783) translate(18 18)"/><path fill="#A274BF" d="M41 12.357V17h-6v-4.643c0-1.46.833-2.702 1.996-3.165A2.71 2.71 0 0 1 38 9c.828 0 1.578.376 2.121.984.543.607.879 1.446.879 2.373z" transform="translate(-166 -1768) translate(191 1783) translate(18 18)"/><path fill="#925CB4" d="M42 12.357V17h-2.007v-4.643c0-.927-.335-1.766-.878-2.373A2.98 2.98 0 0 0 38 9.192 2.705 2.705 0 0 1 39.004 9c.827 0 1.576.376 2.118.984.543.607.878 1.446.878 2.373z" transform="translate(-166 -1768) translate(191 1783) translate(18 18)"/><path fill="#FFCEBF" d="M42 6.5c0 .69-.28 1.315-.732 1.768A2.489 2.489 0 0 1 39.5 9 2.5 2.5 0 1 1 42 6.5z" transform="translate(-166 -1768) translate(191 1783) translate(18 18)"/><path fill="#FFB09E" d="M41 6.5a2.69 2.69 0 0 1-.637 1.768c-.394.453-.939.732-1.54.732-.292 0-.57-.065-.823-.185a2.16 2.16 0 0 0 .718-.547 2.69 2.69 0 0 0 .637-1.768c0-.69-.243-1.315-.637-1.768A2.17 2.17 0 0 0 38 4.185c.253-.12.531-.185.822-.185.602 0 1.147.28 1.54.732.395.453.638 1.078.638 1.768z" transform="translate(-166 -1768) translate(191 1783) translate(18 18)"/><path fill="#FFF9DF" d="M45 30.88v10.24A1.88 1.88 0 0 1 43.121 43h-2.423L38 42.523 35.302 43h-2.423A1.88 1.88 0 0 1 31 41.12V30.88A1.88 1.88 0 0 1 32.879 29H43.12A1.88 1.88 0 0 1 45 30.88z" transform="translate(-166 -1768) translate(191 1783) translate(18 18)"/><path fill="#FFF0AD" d="M43 30.88v10.24c0 1.039-.735 1.88-1.642 1.88H39c.907 0 1.642-.841 1.642-1.88V30.88c0-1.039-.735-1.88-1.642-1.88h2.358c.907 0 1.642.841 1.642 1.88z" transform="translate(-166 -1768) translate(191 1783) translate(18 18)"/><path fill="#A274BF" d="M40 38.937V43h-5v-4.063c0-1.207.62-2.245 1.507-2.696A2.18 2.18 0 0 1 37.5 36c.69 0 1.315.33 1.768.86.452.532.732 1.266.732 2.077z" transform="translate(-166 -1768) translate(191 1783) translate(18 18)"/><path fill="#925CB4" d="M40 38.937V43h-1.706v-4.063c0-.81-.24-1.545-.629-2.077a2.247 2.247 0 0 0-.665-.619c.262-.154.55-.241.853-.241.593 0 1.13.33 1.518.86.388.532.629 1.266.629 2.077z" transform="translate(-166 -1768) translate(191 1783) translate(18 18)"/><path fill="#FFCEBF" d="M39 35a1.994 1.994 0 0 1-2.824 1.822A1.999 1.999 0 0 1 37 33c.553 0 1.053.224 1.415.586.362.362.585.862.585 1.414z" transform="translate(-166 -1768) translate(191 1783) translate(18 18)"/><path fill="#FFB09E" d="M40 35c0 .553-.237 1.053-.622 1.415a2.186 2.186 0 0 1-1.502.585c-.313 0-.61-.063-.876-.178.235-.099.447-.238.627-.407.384-.362.621-.862.621-1.415 0-.552-.237-1.052-.621-1.414A2.114 2.114 0 0 0 37 33.18c.267-.116.563-.179.876-.179.587 0 1.118.224 1.502.586.385.362.622.862.622 1.414zM16.291 21c-.31 0-.595-.176-.682-.444l-.583-1.786c-.105-.322.115-.657.492-.747.377-.09.768.098.873.42l.583 1.787c.105.322-.115.657-.492.748a.823.823 0 0 1-.191.022zM13.437 26c-.873 0-1.712-.534-2.277-1.46-.242-.396-.205-.987.083-1.32.288-.333.717-.282.959.114.33.542.835.837 1.346.786a1.26 1.26 0 0 0 .508-.165c.347-.2.746.025.891.503.145.477-.018 1.026-.365 1.226a2.32 2.32 0 0 1-1.145.316z" transform="translate(-166 -1768) translate(191 1783) translate(18 18)"/><path fill="#AA6A51" d="M41.271 23H33.73c-.403 0-.729-.224-.729-.5s.326-.5.729-.5h7.542c.403 0 .729.224.729.5s-.326.5-.729.5z" transform="translate(-166 -1768) translate(191 1783) translate(18 18)"/><path fill="#A274BF" d="M47 21.417v3.166c0 .783-.634 1.417-1.417 1.417h-3.165A1.417 1.417 0 0 1 41 24.583v-3.166c0-.783.635-1.417 1.418-1.417h3.165c.783 0 1.417.634 1.417 1.417z" transform="translate(-166 -1768) translate(191 1783) translate(18 18)"/><path fill="#925CB4" d="M47 21.417v3.166c0 .783-.515 1.417-1.15 1.417H44c.635 0 1.15-.634 1.15-1.417v-3.166c0-.783-.515-1.417-1.15-1.417h1.85c.635 0 1.15.634 1.15 1.417z" transform="translate(-166 -1768) translate(191 1783) translate(18 18)"/></g></g></svg>