<?xml version="1.0" encoding="UTF-8" standalone="no"?>
<svg width="158px" height="24px" viewBox="0 0 158 24" version="1.1" xmlns="http://www.w3.org/2000/svg" xmlns:xlink="http://www.w3.org/1999/xlink">
    <!-- Generator: Sketch 50.2 (55047) - http://www.bohemiancoding.com/sketch -->
    <title>Group 15</title>
    <desc>Created with Sketch.</desc>
    <defs></defs>
    <g id="Page-1" stroke="none" stroke-width="1" fill="none" fill-rule="evenodd">
        <g id="Landing-Page-MC" transform="translate(-121.000000, -27.000000)">
            <g id="Group-15" transform="translate(122.000000, 28.000000)">
                <path d="M60.6,4 L60.6,18 L58.76,18 L58.76,7.06 L54.18,14.68 L53.94,14.68 L49.36,7.08 L49.36,18 L47.5,18 L47.5,4 L49.6,4 L54.06,11.4 L58.5,4 L60.6,4 Z M70.4,8 L72.26,8 L68.18,18.62 C67.7533312,19.753339 67.1566705,20.6166637 66.39,21.21 C65.6233295,21.8033363 64.740005,22.066667 63.74,22 L63.74,20.38 C64.9666728,20.4733338 65.8666638,19.7933406 66.44,18.34 L66.62,17.96 L62.26,8 L64.12,8 L67.52,15.84 L70.4,8 Z M82.16,10.74 C83.3866728,11.4466702 84,12.5133262 84,13.94 C84,15.1266726 83.5800042,16.0999962 82.74,16.86 C81.8999958,17.6200038 80.8666728,18 79.64,18 L73.7,18 L73.7,4 L79.22,4 C80.420006,4 81.4299959,4.3699963 82.25,5.11 C83.0700041,5.8500037 83.48,6.7933276 83.48,7.94 C83.48,9.1000058 83.0400044,10.0333298 82.16,10.74 Z M79.22,6.58 L76.46,6.58 L76.46,9.66 L79.22,9.66 C79.6466688,9.66 80.0033319,9.5133348 80.29,9.22 C80.5766681,8.9266652 80.72,8.5600022 80.72,8.12 C80.72,7.6799978 80.5800014,7.3133348 80.3,7.02 C80.0199986,6.7266652 79.6600022,6.58 79.22,6.58 Z M79.64,15.42 C80.106669,15.42 80.4933318,15.2633349 80.8,14.95 C81.1066682,14.6366651 81.26,14.2400024 81.26,13.76 C81.26,13.293331 81.1066682,12.9033349 80.8,12.59 C80.4933318,12.2766651 80.106669,12.12 79.64,12.12 L76.46,12.12 L76.46,15.42 L79.64,15.42 Z M88.26,9.72 C88.5000012,9.0799968 88.8966639,8.6000016 89.45,8.28 C90.0033361,7.9599984 90.6199966,7.8 91.3,7.8 L91.3,10.68 C90.5133294,10.5866662 89.8100031,10.7466646 89.19,11.16 C88.5699969,11.5733354 88.26,12.2599952 88.26,13.22 L88.26,18 L85.68,18 L85.68,8 L88.26,8 L88.26,9.72 Z M100.4,8 L102.98,8 L102.98,18 L100.4,18 L100.4,16.82 C99.6266628,17.7933382 98.540007,18.28 97.14,18.28 C95.80666,18.28 94.6633381,17.7700051 93.71,16.75 C92.7566619,15.7299949 92.28,14.4800074 92.28,13 C92.28,11.5199926 92.7566619,10.2700051 93.71,9.25 C94.6633381,8.2299949 95.80666,7.72 97.14,7.72 C98.540007,7.72 99.6266628,8.2066618 100.4,9.18 L100.4,8 Z M97.62,15.82 C98.420004,15.82 99.0833307,15.5566693 99.61,15.03 C100.136669,14.5033307 100.4,13.8266708 100.4,13 C100.4,12.1733292 100.136669,11.4966693 99.61,10.97 C99.0833307,10.4433307 98.420004,10.18 97.62,10.18 C96.819996,10.18 96.1600026,10.4433307 95.64,10.97 C95.1199974,11.4966693 94.86,12.1733292 94.86,13 C94.86,13.8266708 95.1199974,14.5033307 95.64,15.03 C96.1600026,15.5566693 96.819996,15.82 97.62,15.82 Z M110.88,7.72 C111.973339,7.72 112.876663,8.086663 113.59,8.82 C114.303337,9.553337 114.66,10.5666602 114.66,11.86 L114.66,18 L112.08,18 L112.08,12.18 C112.08,11.51333 111.900002,11.0033351 111.54,10.65 C111.179998,10.2966649 110.700003,10.12 110.1,10.12 C109.43333,10.12 108.900002,10.3266646 108.5,10.74 C108.099998,11.1533354 107.9,11.7733292 107.9,12.6 L107.9,18 L105.32,18 L105.32,8 L107.9,8 L107.9,9.12 C108.52667,8.186662 109.519993,7.72 110.88,7.72 Z M124.44,4 L127.02,4 L127.02,18 L124.44,18 L124.44,16.82 C123.679996,17.7933382 122.600007,18.28 121.2,18.28 C119.853327,18.28 118.703338,17.7700051 117.75,16.75 C116.796662,15.7299949 116.32,14.4800074 116.32,13 C116.32,11.5199926 116.796662,10.2700051 117.75,9.25 C118.703338,8.2299949 119.853327,7.72 121.2,7.72 C122.600007,7.72 123.679996,8.2066618 124.44,9.18 L124.44,4 Z M121.68,15.82 C122.480004,15.82 123.139997,15.5566693 123.66,15.03 C124.180003,14.5033307 124.44,13.8266708 124.44,13 C124.44,12.1733292 124.180003,11.4966693 123.66,10.97 C123.139997,10.4433307 122.480004,10.18 121.68,10.18 C120.879996,10.18 120.216669,10.4433307 119.69,10.97 C119.163331,11.4966693 118.9,12.1733292 118.9,13 C118.9,13.8266708 119.163331,14.5033307 119.69,15.03 C120.216669,15.5566693 120.879996,15.82 121.68,15.82 Z M130.66,6.8 C130.233331,6.8 129.863335,6.6433349 129.55,6.33 C129.236665,6.0166651 129.08,5.6466688 129.08,5.22 C129.08,4.7933312 129.236665,4.4200016 129.55,4.1 C129.863335,3.7799984 130.233331,3.62 130.66,3.62 C131.100002,3.62 131.476665,3.7799984 131.79,4.1 C132.103335,4.4200016 132.26,4.7933312 132.26,5.22 C132.26,5.6466688 132.103335,6.0166651 131.79,6.33 C131.476665,6.6433349 131.100002,6.8 130.66,6.8 Z M129.38,18 L129.38,8 L131.96,8 L131.96,18 L129.38,18 Z M139.88,7.72 C140.973339,7.72 141.876663,8.086663 142.59,8.82 C143.303337,9.553337 143.66,10.5666602 143.66,11.86 L143.66,18 L141.08,18 L141.08,12.18 C141.08,11.51333 140.900002,11.0033351 140.54,10.65 C140.179998,10.2966649 139.700003,10.12 139.1,10.12 C138.43333,10.12 137.900002,10.3266646 137.5,10.74 C137.099998,11.1533354 136.9,11.7733292 136.9,12.6 L136.9,18 L134.32,18 L134.32,8 L136.9,8 L136.9,9.12 C137.52667,8.186662 138.519993,7.72 139.88,7.72 Z M153.52,8 L156.04,8 L156.04,17.52 C156.04,19.0666744 155.530005,20.2466626 154.51,21.06 C153.489995,21.8733374 152.260007,22.28 150.82,22.28 C149.739995,22.28 148.790004,22.0733354 147.97,21.66 C147.149996,21.2466646 146.520002,20.640004 146.08,19.84 L148.28,18.58 C148.786669,19.513338 149.659994,19.98 150.9,19.98 C151.713337,19.98 152.353331,19.7666688 152.82,19.34 C153.286669,18.9133312 153.52,18.3066706 153.52,17.52 L153.52,16.44 C152.759996,17.4533384 151.69334,17.96 150.32,17.96 C148.90666,17.96 147.723338,17.4633383 146.77,16.47 C145.816662,15.4766617 145.34,14.2666738 145.34,12.84 C145.34,11.4266596 145.819995,10.220005 146.78,9.22 C147.740005,8.219995 148.919993,7.72 150.32,7.72 C151.69334,7.72 152.759996,8.2266616 153.52,9.24 L153.52,8 Z M150.72,15.58 C151.533337,15.58 152.203331,15.3233359 152.73,14.81 C153.256669,14.2966641 153.52,13.640004 153.52,12.84 C153.52,12.0533294 153.256669,11.4033359 152.73,10.89 C152.203331,10.3766641 151.533337,10.12 150.72,10.12 C149.906663,10.12 149.236669,10.3766641 148.71,10.89 C148.183331,11.4033359 147.92,12.0533294 147.92,12.84 C147.92,13.640004 148.183331,14.2966641 148.71,14.81 C149.236669,15.3233359 149.906663,15.58 150.72,15.58 Z" id="MyBranding" fill="#FFFFFF"></path>
                <g id="Group-3" stroke="#FFFFFF" stroke-linecap="round" stroke-linejoin="round" stroke-width="2">
                    <path d="M26,22 L26,19.6666667 C26,17.0893378 23.8733526,15 21.25,15 L11.75,15 C9.12664744,15 7,17.0893378 7,19.6666667 L7,22" id="Shape"></path>
                    <circle id="Oval" cx="17" cy="5" r="5"></circle>
                    <g id="Group-2" transform="translate(26.000000, 0.000000)">
                        <path d="M8,22 L8,19.5555556 C7.99844605,17.3275884 6.58857003,15.3825469 4.57142857,14.8255556" id="Shape"></path>
                        <path d="M0,0.158888889 C2.0227598,0.712763074 3.43753515,2.66198918 3.43753515,4.895 C3.43753515,7.12801082 2.0227598,9.07723693 0,9.63111111" id="Shape"></path>
                    </g>
                    <g id="Group-2" transform="translate(4.500000, 11.000000) scale(-1, 1) translate(-4.500000, -11.000000) ">
                        <path d="M9,22 L9,19.5555556 C8.99825181,17.3275884 7.41214129,15.3825469 5.14285714,14.8255556" id="Shape"></path>
                        <path d="M0,0.158888889 C2.27560478,0.712763074 3.86722705,2.66198918 3.86722705,4.895 C3.86722705,7.12801082 2.27560478,9.07723693 0,9.63111111" id="Shape"></path>
                    </g>
                </g>
            </g>
        </g>
    </g>
</svg>